<?xml version="1.0" encoding="utf-8"?>
<!-- Generator: Adobe Illustrator 26.0.0, SVG Export Plug-In . SVG Version: 6.00 Build 0)  -->
<svg version="1.1" id="cr_close" xmlns="http://www.w3.org/2000/svg" xmlns:xlink="http://www.w3.org/1999/xlink" x="0px" y="0px"
	 viewBox="0 0 615 116.9" style="enable-background:new 0 0 615 116.9;" xml:space="preserve">
<path d="M601.3,90.5V21.7h12.1v68.9h-12.1V90.5z"/>
<path d="M575.2,90.5V21.7h12.1v68.9h-12.1V90.5z"/>
<path d="M565,65.7c0,16.6-8.3,25.5-23.6,25.5s-23.6-8.9-23.6-25.5s8.3-25.5,23.6-25.5C556.7,40.2,565,49.1,565,65.7z M553.5,65.7
	c0-13.4-4.5-15.9-11.5-15.9s-11.5,2.5-11.5,15.9S535,81.6,542,81.6C548.4,81.6,553.5,79.1,553.5,65.7z"/>
<path d="M512.7,40.2v10.2c-6.4,0-14,0-14,3.2v37h-12.1v-44C487.2,38.9,512.7,40.2,512.7,40.2z"/>
<path d="M440,110.3c9-22.3,8.3-20.4,9-22.3l-17.9-47.2h12.8l11.5,34.4l10.8-34.4H479l-19.1,51l-7,18.5
	C452.9,110.3,440,110.3,440,110.3z"/>
<path d="M424.1,60.6v30H412V59.9c0-4.5-1.3-8.9-12.1-8.9c-2.8,0.1-5.6,0.5-8.3,1.3v38.3h-12.1V21.7h12.1v19.8
	c3.2-1.4,6.7-2,10.2-1.9C416.4,40.2,424.1,47.8,424.1,60.6z"/>
<path d="M357.2,81c4.4-0.2,8.7-1,12.8-2.6v10.2c-4.7,1.9-9.6,2.7-14.7,2.5c-15.3,0-23.6-8.9-23.6-25.5s8.3-26.1,23.6-26.1
	c5,0.2,9.9,1,14.7,2.6v10.2c-4.1-1.6-8.4-2.4-12.8-2.5c-8.3,0-13.4,2.5-13.4,15.3C343.8,78.4,348.9,81,357.2,81z"/>
<path d="M324,59.3v31.2h-11.5V59.3c0-4.5,0-8.9-10.2-8.9c-3.2,0-9.6,0.6-9.6,2.5v37.6h-11.5V49.1c0-8.3,10.2-9.6,22.9-9.6
	C317,40.2,324,45.3,324,59.3z"/>
<path d="M269.8,40.8v27.4c0,14.7-5.1,23.6-22.3,23.6s-21.7-8.9-21.7-23.6V40.8h11.5v28.7c0,8.3,3.2,10.8,10.2,10.8
	s10.2-2.5,10.2-10.8V40.8H269.8z"/>
<path d="M216.3,40.2v10.2c-6.4,0-14,0-14,3.2v37h-12.1v-44C190.8,38.9,216.3,40.2,216.3,40.2z"/>
<path d="M166.5,81c4.2-0.1,8.3-1,12.1-2.6v10.2c-4.7,1.9-9.6,2.7-14.7,2.5c-15.3,0-23.6-8.9-23.6-25.5s8.3-26.1,23.6-26.1
	c5,0.2,9.9,1,14.7,2.6v10.2c-3.9-1.5-8-2.4-12.1-2.5c-8.3,0-13.4,2.5-13.4,15.3C152.5,78.4,158.3,81,166.5,81z"/>
<path d="M15.5,65.7c0-27.9,22.6-50.4,50.5-50.4c26.3,0.1,48.1,20.3,50.2,46.5v-3.2c0-31.7-25.7-57.4-57.4-57.4S1.4,27,1.4,58.7
	S27.1,116,58.8,116h3.8C36.2,114.2,15.6,92.2,15.5,65.7z"/>
<path d="M93.2,68.2C83,68.2,74.8,60,74.7,49.9c0-7.8,4.8-14.7,12.1-17.4c-5.7-3-12-4.6-18.5-4.5c-22.2,0-40.2,18-40.2,40.2
	s18,40.2,40.2,40.2s40.2-18,40.2-40.2l0,0c0.1-2.6-0.1-5.1-0.6-7.7C104.8,65.6,99.1,68.5,93.2,68.2z"/>
</svg>
